<svg width="800" height="1200" viewBox="0 0 800 1200" fill="none" xmlns="http://www.w3.org/2000/svg">
  <rect width="800" height="1200" fill="#F3F4F6"/>
  <path d="M200 400C200 377.909 217.909 360 240 360H560C582.091 360 600 377.909 600 400V1000C600 1022.09 582.091 1040 560 1040H240C217.909 1040 200 1022.09 200 1000V400Z" fill="#E5E7EB"/>
  <path d="M240 360H560V320H240V360ZM200 1000V400H160V1000H200ZM240 1040H560V1000H240V1040ZM600 1000V400H640V1000H600ZM560 1040C582.091 1040 600 1022.09 600 1000H640C640 1047.6 600.803 1080 560 1080V1040ZM200 1000C200 1022.09 217.909 1040 240 1040V1080C199.197 1080 160 1047.6 160 1000H200ZM240 320C217.909 320 200 337.909 200 360H160C160 312.397 199.197 280 240 280V320ZM560 320H240V280H560V320Z" fill="#9CA3AF"/>
  <path d="M240 280C217.909 280 200 297.909 200 320V1000C200 1022.09 217.909 1040 240 1040" stroke="#9CA3AF" stroke-width="40"/>
  <path d="M400 600L280 500M400 600L520 500M400 600V700" stroke="#9CA3AF" stroke-width="20" stroke-linecap="round" stroke-linejoin="round"/>
</svg>
